<svg xmlns="http://www.w3.org/2000/svg" viewBox="0 0 64 64">
  <defs>
    <linearGradient id="neonGlow" x1="0%" y1="0%" x2="100%" y2="100%">
      <stop offset="0%" style="stop-color:#ff00ff;stop-opacity:1" />
      <stop offset="100%" style="stop-color:#00ffff;stop-opacity:1" />
    </linearGradient>
  </defs>
  <!-- Pão de cima -->
  <path d="M8 28 Q8 12 32 12 Q56 12 56 28 L56 30 L8 30 Z" fill="#f4a460" stroke="url(#neonGlow)" stroke-width="2"/>
  <!-- Sementes -->
  <ellipse cx="20" cy="20" rx="2" ry="1.5" fill="#fffacd"/>
  <ellipse cx="32" cy="17" rx="2" ry="1.5" fill="#fffacd"/>
  <ellipse cx="44" cy="20" rx="2" ry="1.5" fill="#fffacd"/>
  <ellipse cx="26" cy="24" rx="2" ry="1.5" fill="#fffacd"/>
  <ellipse cx="38" cy="24" rx="2" ry="1.5" fill="#fffacd"/>
  <!-- Alface -->
  <path d="M6 32 Q10 28 16 32 Q22 28 28 32 Q34 28 40 32 Q46 28 52 32 Q58 28 58 32 L58 36 Q52 40 46 36 Q40 40 34 36 Q28 40 22 36 Q16 40 10 36 Q6 40 6 36 Z" fill="#32cd32" stroke="url(#neonGlow)" stroke-width="1"/>
  <!-- Queijo -->
  <polygon points="6,38 58,38 60,44 4,44" fill="#ffd700" stroke="url(#neonGlow)" stroke-width="1"/>
  <!-- Hambúrguer (carne) -->
  <rect x="8" y="44" width="48" height="8" rx="2" fill="#8b4513" stroke="url(#neonGlow)" stroke-width="2"/>
  <!-- Pão de baixo -->
  <path d="M8 54 L56 54 Q56 60 48 60 L16 60 Q8 60 8 54 Z" fill="#f4a460" stroke="url(#neonGlow)" stroke-width="2"/>
</svg>

